<svg width="56" height="57" viewBox="0 0 56 57" fill="none" xmlns="http://www.w3.org/2000/svg">
<rect y="0.629883" width="56" height="56" rx="28" fill="white"/>
<g clip-path="url(#clip0_7_4922)">
<path fill-rule="evenodd" clip-rule="evenodd" d="M39.8631 30.398C41.2382 29.0228 42.0107 27.1577 42.0107 25.213C42.0107 23.2683 41.2382 21.4032 39.8631 20.028C39.6464 19.8113 39.3892 19.6393 39.1061 19.522C38.823 19.4047 38.5195 19.3443 38.2131 19.3443C37.9066 19.3443 37.6032 19.4047 37.3201 19.522C37.037 19.6393 36.7797 19.8113 36.5631 20.028L35.0901 21.5C34.7309 21.8595 34.5291 22.3468 34.5291 22.855C34.5291 23.3631 34.7309 23.8505 35.0901 24.21C35.4539 24.5737 35.7425 25.0056 35.9394 25.4808C36.1363 25.9561 36.2376 26.4655 36.2376 26.98C36.2376 27.4944 36.1363 28.0038 35.9394 28.4791C35.7425 28.9544 35.4539 29.3862 35.0901 29.75L29.7871 35.053C29.4233 35.4168 28.9915 35.7054 28.5162 35.9023C28.0409 36.0992 27.5315 36.2005 27.0171 36.2005C26.5026 36.2005 25.9932 36.0992 25.5179 35.9023C25.0427 35.7054 24.6108 35.4168 24.2471 35.053C23.8876 34.6938 23.4002 34.492 22.8921 34.492C22.3839 34.492 21.8965 34.6938 21.5371 35.053L20.0641 36.526C19.8473 36.7426 19.6754 36.9999 19.5581 37.283C19.4408 37.5661 19.3804 37.8695 19.3804 38.176C19.3804 38.4824 19.4408 38.7859 19.5581 39.069C19.6754 39.3521 19.8473 39.6093 20.0641 39.826C20.745 40.507 21.5534 41.0472 22.4432 41.4158C23.3329 41.7844 24.2865 41.9741 25.2496 41.9741C26.2126 41.9741 27.1663 41.7844 28.056 41.4158C28.9457 41.0472 29.7541 40.507 30.4351 39.826L39.8631 30.398ZM41.2771 18.613C42.1439 19.4797 42.8315 20.5086 43.3006 21.641C43.7698 22.7735 44.0112 23.9872 44.0112 25.213C44.0112 26.4387 43.7698 27.6525 43.3006 28.7849C42.8315 29.9174 42.1439 30.9463 41.2771 31.813L31.8501 41.24C30.9834 42.1068 29.9545 42.7944 28.822 43.2635C27.6896 43.7327 26.4758 43.9741 25.2501 43.9741C24.0243 43.9741 22.8106 43.7327 21.6781 43.2635C20.5457 42.7944 19.5168 42.1068 18.6501 41.24C18.2475 40.8376 17.9282 40.3599 17.7104 39.834C17.4925 39.3082 17.3804 38.7446 17.3804 38.1755C17.3804 37.6063 17.4925 37.0427 17.7104 36.5169C17.9282 35.9911 18.2475 35.5134 18.6501 35.111L20.1241 33.638C20.4878 33.2742 20.9197 32.9856 21.3949 32.7887C21.8702 32.5918 22.3796 32.4905 22.8941 32.4905C23.4085 32.4905 23.9179 32.5918 24.3932 32.7887C24.8685 32.9856 25.3003 33.2742 25.6641 33.638C26.0235 33.9972 26.5109 34.1989 27.0191 34.1989C27.5272 34.1989 28.0146 33.9972 28.3741 33.638L33.6771 28.335C34.0363 27.9755 34.238 27.4881 34.238 26.98C34.238 26.4718 34.0363 25.9845 33.6771 25.625C33.3133 25.2613 33.0247 24.8294 32.8278 24.3541C32.6309 23.8788 32.5296 23.3694 32.5296 22.855C32.5296 22.3405 32.6309 21.8311 32.8278 21.3558C33.0247 20.8806 33.3133 20.4487 33.6771 20.085L35.1501 18.612C35.5524 18.2096 36.0301 17.8904 36.5558 17.6726C37.0816 17.4549 37.645 17.3428 38.2141 17.3428C38.7831 17.3428 39.3466 17.4549 39.8723 17.6726C40.398 17.8904 40.8757 18.2096 41.2781 18.612L41.2771 18.613ZM29.2291 22.31L28.2631 22.57C26.9067 22.9333 25.6699 23.6473 24.6769 24.6401C23.6839 25.633 22.9697 26.8697 22.6061 28.226L22.3471 29.192L20.4151 28.674L20.6741 27.708C21.1286 26.0126 22.0213 24.4668 23.2625 23.2257C24.5037 21.9847 26.0497 21.0922 27.7451 20.638L28.7111 20.378L29.2291 22.31Z" fill="#332E69"/>
<path fill-rule="evenodd" clip-rule="evenodd" d="M28.667 17.2969C27.1787 17.2967 25.7048 17.5898 24.3298 18.1593C22.9547 18.7287 21.7052 19.5635 20.6527 20.6159C19.6002 21.6683 18.7654 22.9176 18.1958 24.2927C17.6262 25.6677 17.333 27.1415 17.333 28.6299V29.6299H15.333V28.6299C15.333 26.8789 15.6779 25.145 16.348 23.5273C17.0181 21.9096 18.0003 20.4398 19.2385 19.2017C20.4767 17.9636 21.9466 16.9815 23.5644 16.3115C25.1821 15.6415 26.916 15.2967 28.667 15.2969H29.667V17.2969H28.667Z" fill="#332E69"/>
</g>
<defs>
<clipPath id="clip0_7_4922">
<rect width="40" height="40" fill="white" transform="translate(8 8.62988)"/>
</clipPath>
</defs>
</svg>
