<svg width="56" height="57" viewBox="0 0 56 57" fill="none" xmlns="http://www.w3.org/2000/svg">
<rect y="0.629883" width="56" height="56" rx="28" fill="white"/>
<g clip-path="url(#clip0_7_4914)">
<path fill-rule="evenodd" clip-rule="evenodd" d="M16.333 17.6299C15.1838 17.6299 14.0817 18.0864 13.2691 18.899C12.4565 19.7116 12 20.8137 12 21.9629V35.2969C12 36.4461 12.4565 37.5482 13.2691 38.3608C14.0817 39.1734 15.1838 39.6299 16.333 39.6299H39.666C40.2351 39.63 40.7987 39.518 41.3245 39.3003C41.8503 39.0826 42.3281 38.7635 42.7305 38.3611C43.133 37.9588 43.4523 37.481 43.6701 36.9553C43.8879 36.4295 44 35.866 44 35.2969V21.9629C44 21.3938 43.8879 20.8303 43.6701 20.3045C43.4523 19.7787 43.133 19.301 42.7305 18.8986C42.3281 18.4963 41.8503 18.1771 41.3245 17.9594C40.7987 17.7417 40.2351 17.6298 39.666 17.6299H16.333ZM15.601 19.7469C15.831 19.6709 16.077 19.6299 16.333 19.6299H39.666C39.922 19.6299 40.169 19.6709 40.399 19.7469L29.4 27.9969C28.57 28.6189 27.43 28.6189 26.6 27.9969L15.601 19.7469ZM14.144 21.1539C14.0483 21.4132 13.9995 21.6875 14 21.9639V35.2969C14 35.9156 14.2458 36.509 14.6833 36.9466C15.1208 37.3841 15.7143 37.6299 16.333 37.6299H39.666C39.9725 37.63 40.2759 37.5698 40.5591 37.4526C40.8423 37.3354 41.0996 37.1636 41.3163 36.9469C41.5331 36.7303 41.705 36.473 41.8223 36.1899C41.9396 35.9068 42 35.6033 42 35.2969V21.9629C42 21.6789 41.949 21.4069 41.856 21.1549L30.6 29.5969C29.8499 30.1593 28.9376 30.4634 28 30.4634C27.0624 30.4634 26.1501 30.1593 25.4 29.5969L14.144 21.1539Z" fill="#332E69"/>
</g>
<defs>
<clipPath id="clip0_7_4914">
<rect width="40" height="40" fill="white" transform="translate(8 8.62988)"/>
</clipPath>
</defs>
</svg>
