<svg width="24" height="25" viewBox="0 0 24 25" fill="none" xmlns="http://www.w3.org/2000/svg">
<g clip-path="url(#clip0_7_5002)">
<path fill-rule="evenodd" clip-rule="evenodd" d="M12.0052 6.48C11.9618 6.43941 11.9181 6.39835 11.874 6.35696C10.9524 5.49195 9.87437 4.48 7.99999 4.48C4.07153 4.48 1.18146 9.48 4.3471 13.48C7.51275 17.48 11.0026 19.98 12.0052 20.48C12.9967 19.98 16.4866 17.48 19.6529 13.48C22.8191 9.48 19.9276 4.48 16 4.48C14.1003 4.48 13.0115 5.51949 12.0975 6.39196C12.0666 6.42151 12.0358 6.45088 12.0052 6.48ZM12.0029 19.0861C13.2906 18.2414 16.1013 16.0334 18.712 12.7352C21.286 9.48337 18.8754 5.68 16 5.68C14.5851 5.68 13.8103 6.41795 12.8601 7.32297L12.0131 8.12958L11.186 7.35687C11.1607 7.33318 11.1355 7.3096 11.1104 7.28615C10.1543 6.39207 9.39288 5.68 7.99999 5.68C5.12411 5.68 2.71425 9.4831 5.28808 12.7353C7.90081 16.0367 10.7127 18.2439 12.0029 19.0861Z" fill="white"/>
</g>
<defs>
<clipPath id="clip0_7_5002">
<rect width="24" height="24" fill="white" transform="translate(0 0.479996)"/>
</clipPath>
</defs>
</svg>
