<svg width="28" height="29" viewBox="0 0 28 29" fill="none" xmlns="http://www.w3.org/2000/svg">
<rect y="0.479996" width="28" height="28" rx="14" fill="white"/>
<g clip-path="url(#clip0_7_5011)">
<path fill-rule="evenodd" clip-rule="evenodd" d="M18 10.48C18 12.6891 16.2091 14.48 14 14.48C11.7909 14.48 10 12.6891 10 10.48C10 8.27086 11.7909 6.48 14 6.48C16.2091 6.48 18 8.27086 18 10.48ZM16.8 10.48C16.8 12.0264 15.5464 13.28 14 13.28C12.4536 13.28 11.2 12.0264 11.2 10.48C11.2 8.9336 12.4536 7.68 14 7.68C15.5464 7.68 16.8 8.9336 16.8 10.48Z" fill="#332E69"/>
<path fill-rule="evenodd" clip-rule="evenodd" d="M11.9999 14.88C9.45939 14.88 7.3999 16.9395 7.3999 19.48V20.3129C7.3999 21.0303 7.69635 21.7772 8.35129 22.2302C9.53578 23.0495 11.6079 24.08 13.9999 24.08C16.3919 24.08 18.464 23.0495 19.6485 22.2302C20.3035 21.7772 20.5999 21.0303 20.5999 20.3129V19.48C20.5999 16.9395 18.5404 14.88 15.9999 14.88H11.9999ZM8.5999 19.48C8.5999 17.6022 10.1221 16.08 11.9999 16.08H15.9999C17.8777 16.08 19.3999 17.6022 19.3999 19.48V20.3129C19.3999 20.7186 19.2345 21.0574 18.9659 21.2433C17.9004 21.9802 16.0647 22.88 13.9999 22.88C11.9351 22.88 10.0994 21.9802 9.03393 21.2433C8.76527 21.0574 8.5999 20.7186 8.5999 20.3129V19.48Z" fill="#332E69"/>
</g>
<defs>
<clipPath id="clip0_7_5011">
<rect width="24" height="24" fill="white" transform="translate(2 2.48)"/>
</clipPath>
</defs>
</svg>
