<svg width="28" height="28" viewBox="0 0 28 28" fill="none" xmlns="http://www.w3.org/2000/svg">
<rect width="28" height="28" rx="14" fill="#332E69"/>
<g clip-path="url(#clip0_6_1307)">
<path fill-rule="evenodd" clip-rule="evenodd" d="M18 10C18 12.2091 16.2091 14 14 14C11.7909 14 10 12.2091 10 10C10 7.79086 11.7909 6 14 6C16.2091 6 18 7.79086 18 10ZM16.8 10C16.8 11.5464 15.5464 12.8 14 12.8C12.4536 12.8 11.2 11.5464 11.2 10C11.2 8.4536 12.4536 7.2 14 7.2C15.5464 7.2 16.8 8.4536 16.8 10Z" fill="white"/>
<path fill-rule="evenodd" clip-rule="evenodd" d="M11.9999 14.4C9.45939 14.4 7.3999 16.4595 7.3999 19V19.8329C7.3999 20.5503 7.69635 21.2972 8.35129 21.7502C9.53578 22.5695 11.6079 23.6 13.9999 23.6C16.3919 23.6 18.464 22.5695 19.6485 21.7502C20.3035 21.2972 20.5999 20.5503 20.5999 19.8329V19C20.5999 16.4595 18.5404 14.4 15.9999 14.4H11.9999ZM8.5999 19C8.5999 17.1222 10.1221 15.6 11.9999 15.6H15.9999C17.8777 15.6 19.3999 17.1222 19.3999 19V19.8329C19.3999 20.2386 19.2345 20.5774 18.9659 20.7633C17.9004 21.5002 16.0647 22.4 13.9999 22.4C11.9351 22.4 10.0994 21.5002 9.03393 20.7633C8.76527 20.5774 8.5999 20.2386 8.5999 19.8329V19Z" fill="white"/>
</g>
<defs>
<clipPath id="clip0_6_1307">
<rect width="24" height="24" fill="white" transform="translate(2 2)"/>
</clipPath>
</defs>
</svg>
