<svg width="56" height="57" viewBox="0 0 56 57" fill="none" xmlns="http://www.w3.org/2000/svg">
<rect y="0.629883" width="56" height="56" rx="28" fill="white"/>
<g clip-path="url(#clip0_7_4931)">
<path fill-rule="evenodd" clip-rule="evenodd" d="M18.333 16.2969C17.7143 16.2969 17.1208 16.5427 16.6833 16.9802C16.2458 17.4177 16 18.0111 16 18.6299V31.9629C15.9999 32.2693 16.0601 32.5728 16.1773 32.856C16.2945 33.1392 16.4663 33.3965 16.683 33.6132C16.8996 33.8299 17.1569 34.0019 17.44 34.1192C17.7231 34.2365 18.0265 34.2969 18.333 34.2969H20C20.707 34.2971 21.3849 34.5781 21.8849 35.078C22.3848 35.5779 22.6657 36.2559 22.666 36.9629V40.6749C22.666 41.2549 23.356 41.5579 23.784 41.1659L30.513 34.9979C31.005 34.5469 31.648 34.2969 32.315 34.2969H38.333C38.6395 34.297 38.9431 34.2367 39.2263 34.1195C39.5096 34.0022 39.7669 33.8303 39.9837 33.6136C40.2004 33.3968 40.3724 33.1394 40.4896 32.8562C40.6068 32.573 40.6671 32.2694 40.667 31.9629V18.6299C40.667 18.3234 40.6066 18.02 40.4893 17.7368C40.372 17.4537 40.2001 17.1965 39.9833 16.9798C39.7666 16.7632 39.5093 16.5914 39.2261 16.4742C38.9429 16.357 38.6395 16.2967 38.333 16.2969H18.333ZM14 18.6299C14 17.4807 14.4565 16.3786 15.2691 15.566C16.0817 14.7534 17.1838 14.2969 18.333 14.2969H38.333C38.9021 14.2967 39.4657 14.4087 39.9915 14.6264C40.5173 14.8441 40.9951 15.1633 41.3975 15.5656C41.8 15.968 42.1193 16.4457 42.3371 16.9715C42.5549 17.4972 42.667 18.0608 42.667 18.6299V31.9629C42.6671 32.5321 42.5551 33.0957 42.3374 33.6216C42.1196 34.1475 41.8004 34.6253 41.3979 35.0278C40.9954 35.4302 40.5176 35.7495 39.9917 35.9672C39.4658 36.185 38.9022 36.297 38.333 36.2969H32.315C32.1484 36.297 31.9879 36.3594 31.865 36.4719L25.135 42.6399C23.425 44.2079 20.666 42.9949 20.666 40.6749V36.9629C20.6657 36.7863 20.5955 36.6171 20.4706 36.4922C20.3458 36.3674 20.1766 36.2971 20 36.2969H18.333C17.7639 36.2969 17.2004 36.1848 16.6746 35.9669C16.1488 35.7491 15.6711 35.4299 15.2688 35.0274C14.8664 34.625 14.5472 34.1472 14.3295 33.6213C14.1118 33.0955 13.9999 32.532 14 31.9629V18.6299Z" fill="#332E69"/>
<path d="M21.667 22.9629H35V20.9629H21.667V22.9629ZM21.667 29.6299H28.333V27.6299H21.667V29.6299Z" fill="#332E69"/>
</g>
<defs>
<clipPath id="clip0_7_4931">
<rect width="40" height="40" fill="white" transform="translate(8 8.62988)"/>
</clipPath>
</defs>
</svg>
